# xmcd CD database file
#
# Track frame offsets:
#	150
#	21550
#	53590
#	96777
#	129337
#	174592
#	185682
#	218752
#	267675
#	279825
#
# Disc length: 4202 seconds
#
# Revision: 0
# Processed by: cddbd v1.5.1PL0 Copyright (c) Steve Scherf et al.
# Submitted via: CDex 1.51
#
DISCID=9010680a
DTITLE=Omer Avital - Think With Your Heart
DYEAR=2001
DGENRE=Jazz
TTITLE0=Redemption Song
TTITLE1=Flow
TTITLE2=Think With Your Heart
TTITLE3=Stella By Starlight
TTITLE4=Make Believe
TTITLE5=Andaluz
TTITLE6=Marrakesh
TTITLE7=Tune In D
TTITLE8=The Journey Home
TTITLE9=Let It Grow
EXTD=YEAR: 2001
EXTT0=
EXTT1=
EXTT2=
EXTT3=
EXTT4=
EXTT5=
EXTT6=
EXTT7=
EXTT8=
EXTT9=
PLAYORDER=
